<svg width="19" height="18" viewBox="0 0 19 18" fill="none" xmlns="http://www.w3.org/2000/svg">
<path d="M2 3H5.75V1.5C5.75 1.10218 5.90804 0.720644 6.18934 0.43934C6.47065 0.158035 6.85218 0 7.25 0L11.75 0C12.1478 0 12.5294 0.158035 12.8107 0.43934C13.092 0.720644 13.25 1.10218 13.25 1.5V3H17V4.5H15.5V15.75C15.5 16.3467 15.2629 16.919 14.841 17.341C14.419 17.7629 13.8467 18 13.25 18H5.75C5.15326 18 4.58097 17.7629 4.15901 17.341C3.73705 16.919 3.5 16.3467 3.5 15.75V4.5H2V3ZM11.75 1.5H7.25V3H11.75V1.5ZM5 15.75C5 15.9489 5.07902 16.1397 5.21967 16.2803C5.36032 16.421 5.55109 16.5 5.75 16.5H13.25C13.4489 16.5 13.6397 16.421 13.7803 16.2803C13.921 16.1397 14 15.9489 14 15.75V4.5H5V15.75Z" fill="white"/>
<path d="M10.25 7.49951H11.75V13.4995H10.25V7.49951Z" fill="white"/>
<path d="M7.24999 7.49951H8.75V13.4995H7.24999V7.49951Z" fill="white"/>
</svg>
