<svg width="18" height="18" viewBox="0 0 18 18" fill="none" xmlns="http://www.w3.org/2000/svg">
<path d="M4.125 12.75C4.74632 12.75 5.25 12.2463 5.25 11.625C5.25 11.0037 4.74632 10.5 4.125 10.5C3.50368 10.5 3 11.0037 3 11.625C3 12.2463 3.50368 12.75 4.125 12.75Z" fill="#9CA3AF"/>
<path d="M15.75 2.25H2.25C1.65326 2.25 1.08097 2.48705 0.65901 2.90901C0.237053 3.33097 0 3.90326 0 4.5L0 15.75H18V4.5C18 3.90326 17.7629 3.33097 17.341 2.90901C16.919 2.48705 16.3467 2.25 15.75 2.25ZM2.25 3.75H15.75C15.9489 3.75 16.1397 3.82902 16.2803 3.96967C16.421 4.11032 16.5 4.30109 16.5 4.5V6H1.5V4.5C1.5 4.30109 1.57902 4.11032 1.71967 3.96967C1.86032 3.82902 2.05109 3.75 2.25 3.75ZM1.5 14.25V7.5H16.5V14.25H1.5Z" fill="#9CA3AF"/>
</svg>
