<svg width="14" height="14" viewBox="0 0 14 14" fill="none" xmlns="http://www.w3.org/2000/svg">
<path fill-rule="evenodd" clip-rule="evenodd" d="M12.8327 7.00008C12.8327 10.2217 10.221 12.8334 6.99935 12.8334C3.77769 12.8334 1.16602 10.2217 1.16602 7.00008C1.16602 3.77842 3.77769 1.16675 6.99935 1.16675C10.221 1.16675 12.8327 3.77842 12.8327 7.00008ZM9.35037 5.23239C9.52123 5.40324 9.52123 5.68025 9.35037 5.85111L6.43371 8.76777C6.26285 8.93863 5.98584 8.93863 5.81499 8.76777L4.64832 7.60111C4.47747 7.43025 4.47747 7.15324 4.64832 6.98239C4.81918 6.81153 5.09619 6.81153 5.26704 6.98239L6.12435 7.8397L7.428 6.53604L8.73166 5.23239C8.90251 5.06153 9.17952 5.06153 9.35037 5.23239Z" fill="#2ECB6D"/>
</svg>
