<svg width="19" height="18" viewBox="0 0 19 18" fill="none" xmlns="http://www.w3.org/2000/svg">
<g clip-path="url(#clip0_3580_1996)">
<path d="M1.15925 4.61325L5.11325 0.65925C5.5385 0.234 6.10325 0 6.704 0H12.296C12.8967 0 13.4615 0.234 13.8868 0.65925L17.8407 4.61325C18.266 5.0385 18.5 5.60325 18.5 6.204V11.796C18.5 12.3967 18.266 12.9615 17.8407 13.3868L13.8868 17.3407C13.4615 17.766 12.8967 18 12.296 18H6.704C6.10325 18 5.5385 17.766 5.11325 17.3407L1.15925 13.3868C0.733999 12.9615 0.5 12.3967 0.5 11.796V6.204C0.5 5.60325 0.733999 5.0385 1.15925 4.61325ZM2 11.796C2 11.9932 2.08025 12.1867 2.21975 12.3263L6.17375 16.2803C6.314 16.4198 6.50675 16.5 6.704 16.5H12.296C12.4932 16.5 12.6867 16.4198 12.8263 16.2803L16.7803 12.3263C16.9197 12.186 17 11.9932 17 11.796V6.204C17 6.00675 16.9197 5.81325 16.7803 5.67375L12.8263 1.71975C12.686 1.58025 12.4932 1.5 12.296 1.5H6.704C6.50675 1.5 6.31325 1.58025 6.17375 1.71975L2.21975 5.67375C2.08025 5.814 2 6.00675 2 6.204V11.796ZM5.8115 5.5635L4.751 6.624L9.29525 11.1683C9.58925 11.4622 9.98075 11.6242 10.3962 11.6242C10.8117 11.6242 11.2032 11.4623 11.4973 11.1675L14.2077 8.457L13.1473 7.3965L10.436 10.107C10.4172 10.1257 10.3745 10.125 10.355 10.107L5.81075 5.56275L5.8115 5.5635Z" fill="white"/>
</g>
<defs>
<clipPath id="clip0_3580_1996">
<rect width="18" height="18" fill="white" transform="matrix(-1 0 0 1 18.5 0)"/>
</clipPath>
</defs>
</svg>
