<svg width="19" height="18" viewBox="0 0 19 18" fill="none" xmlns="http://www.w3.org/2000/svg">
<path d="M8.12622 14.5338L7.97467 14.2756C6.83804 12.339 3.81439 8.22496 3.784 8.18363L3.69531 8.06314L4.83257 6.93942L8.08766 9.21237C10.1278 6.57575 12.0283 4.76118 13.2716 3.69772C14.6451 2.52291 15.5147 1.99717 15.5508 1.97536L15.592 1.95068H17.5962L17.2568 2.25301C12.9707 6.07057 8.32083 14.1921 8.27434 14.2737L8.12622 14.5338Z" fill="white"/>
<path d="M8.12689 4.13855C8.27895 4.13855 8.40222 4.01528 8.40222 3.86322C8.40222 3.71116 8.27895 3.58789 8.12689 3.58789C7.97483 3.58789 7.85156 3.71116 7.85156 3.86322C7.85156 4.01528 7.97483 4.13855 8.12689 4.13855Z" fill="#828282"/>
<path d="M8.12689 16.0492C8.27895 16.0492 8.40222 15.9259 8.40222 15.7739C8.40222 15.6218 8.27895 15.4985 8.12689 15.4985C7.97483 15.4985 7.85156 15.6218 7.85156 15.7739C7.85156 15.9259 7.97483 16.0492 8.12689 16.0492Z" fill="#828282"/>
<path d="M2.17767 10.0941C2.32974 10.0941 2.45301 9.97085 2.45301 9.81879C2.45301 9.66673 2.32974 9.54346 2.17767 9.54346C2.02561 9.54346 1.90234 9.66673 1.90234 9.81879C1.90234 9.97085 2.02561 10.0941 2.17767 10.0941Z" fill="#828282"/>
<path d="M14.0761 10.0941C14.2282 10.0941 14.3514 9.97085 14.3514 9.81879C14.3514 9.66673 14.2282 9.54346 14.0761 9.54346C13.9241 9.54346 13.8008 9.66673 13.8008 9.81879C13.8008 9.97085 13.9241 10.0941 14.0761 10.0941Z" fill="#828282"/>
<path d="M3.91596 14.3051C4.06802 14.3051 4.19129 14.1818 4.19129 14.0297C4.19129 13.8777 4.06802 13.7544 3.91596 13.7544C3.76389 13.7544 3.64062 13.8777 3.64062 14.0297C3.64062 14.1818 3.76389 14.3051 3.91596 14.3051Z" fill="#828282"/>
<path d="M3.91986 5.88758C4.07192 5.88758 4.19519 5.76431 4.19519 5.61224C4.19519 5.46018 4.07192 5.33691 3.91986 5.33691C3.7678 5.33691 3.64453 5.46018 3.64453 5.61224C3.64453 5.76431 3.7678 5.88758 3.91986 5.88758Z" fill="#828282"/>
<path d="M12.3339 14.3007C12.486 14.3007 12.6093 14.1774 12.6093 14.0253C12.6093 13.8733 12.486 13.75 12.3339 13.75C12.1819 13.75 12.0586 13.8733 12.0586 14.0253C12.0586 14.1774 12.1819 14.3007 12.3339 14.3007Z" fill="#828282"/>
<path d="M2.96869 7.11609C3.12075 7.11609 3.24402 6.99282 3.24402 6.84076C3.24402 6.6887 3.12075 6.56543 2.96869 6.56543C2.81663 6.56543 2.69336 6.6887 2.69336 6.84076C2.69336 6.99282 2.81663 7.11609 2.96869 7.11609Z" fill="#828282"/>
<path d="M13.2851 13.0717C13.4372 13.0717 13.5604 12.9484 13.5604 12.7963C13.5604 12.6443 13.4372 12.521 13.2851 12.521C13.133 12.521 13.0098 12.6443 13.0098 12.7963C13.0098 12.9484 13.133 13.0717 13.2851 13.0717Z" fill="#828282"/>
<path d="M5.15228 15.246C5.30435 15.246 5.42761 15.1227 5.42761 14.9706C5.42761 14.8186 5.30435 14.6953 5.15228 14.6953C5.00022 14.6953 4.87695 14.8186 4.87695 14.9706C4.87695 15.1227 5.00022 15.246 5.15228 15.246Z" fill="#828282"/>
<path d="M6.58588 4.34168C6.73794 4.34168 6.86121 4.21841 6.86121 4.06635C6.86121 3.91429 6.73794 3.79102 6.58588 3.79102C6.43382 3.79102 6.31055 3.91429 6.31055 4.06635C6.31055 4.21841 6.43382 4.34168 6.58588 4.34168Z" fill="#828282"/>
<path d="M9.66791 15.8466C9.81997 15.8466 9.94324 15.7233 9.94324 15.5712C9.94324 15.4192 9.81997 15.2959 9.66791 15.2959C9.51585 15.2959 9.39258 15.4192 9.39258 15.5712C9.39258 15.7233 9.51585 15.8466 9.66791 15.8466Z" fill="#828282"/>
<path d="M2.3808 11.6337C2.53286 11.6337 2.65613 11.5104 2.65613 11.3583C2.65613 11.2063 2.53286 11.083 2.3808 11.083C2.22874 11.083 2.10547 11.2063 2.10547 11.3583C2.10547 11.5104 2.22874 11.6337 2.3808 11.6337Z" fill="#828282"/>
<path d="M13.873 8.55408C14.025 8.55408 14.1483 8.43081 14.1483 8.27875C14.1483 8.12669 14.025 8.00342 13.873 8.00342C13.7209 8.00342 13.5977 8.12669 13.5977 8.27875C13.5977 8.43081 13.7209 8.55408 13.873 8.55408Z" fill="#828282"/>
<path d="M2.96869 13.0717C3.12075 13.0717 3.24402 12.9484 3.24402 12.7963C3.24402 12.6443 3.12075 12.521 2.96869 12.521C2.81663 12.521 2.69336 12.6443 2.69336 12.7963C2.69336 12.9484 2.81663 13.0717 2.96869 13.0717Z" fill="#828282"/>
<path d="M11.1015 15.246C11.2536 15.246 11.3768 15.1227 11.3768 14.9706C11.3768 14.8186 11.2536 14.6953 11.1015 14.6953C10.9494 14.6953 10.8262 14.8186 10.8262 14.9706C10.8262 15.1227 10.9494 15.246 11.1015 15.246Z" fill="#828282"/>
<path d="M5.15228 4.94177C5.30435 4.94177 5.42761 4.81851 5.42761 4.66644C5.42761 4.51438 5.30435 4.39111 5.15228 4.39111C5.00022 4.39111 4.87695 4.51438 4.87695 4.66644C4.87695 4.81851 5.00022 4.94177 5.15228 4.94177Z" fill="#828282"/>
<path d="M9.66791 4.34168C9.81997 4.34168 9.94324 4.21841 9.94324 4.06635C9.94324 3.91429 9.81997 3.79102 9.66791 3.79102C9.51585 3.79102 9.39258 3.91429 9.39258 4.06635C9.39258 4.21841 9.51585 4.34168 9.66791 4.34168Z" fill="#828282"/>
<path d="M6.58588 15.8466C6.73794 15.8466 6.86121 15.7233 6.86121 15.5712C6.86121 15.4192 6.73794 15.2959 6.58588 15.2959C6.43382 15.2959 6.31055 15.4192 6.31055 15.5712C6.31055 15.7233 6.43382 15.8466 6.58588 15.8466Z" fill="#828282"/>
<path d="M13.873 11.6337C14.025 11.6337 14.1483 11.5104 14.1483 11.3583C14.1483 11.2063 14.025 11.083 13.873 11.083C13.7209 11.083 13.5977 11.2063 13.5977 11.3583C13.5977 11.5104 13.7209 11.6337 13.873 11.6337Z" fill="#828282"/>
<path d="M2.3808 8.55408C2.53286 8.55408 2.65613 8.43081 2.65613 8.27875C2.65613 8.12669 2.53286 8.00342 2.3808 8.00342C2.22874 8.00342 2.10547 8.12669 2.10547 8.27875C2.10547 8.43081 2.22874 8.55408 2.3808 8.55408Z" fill="#828282"/>
</svg>
