<svg width="19" height="18" viewBox="0 0 19 18" fill="none" xmlns="http://www.w3.org/2000/svg">
<g clip-path="url(#clip0_3767_9179)">
<path d="M17.8407 4.61325L13.8868 0.65925C13.4615 0.234 12.8967 0 12.296 0H6.704C6.10325 0 5.5385 0.234 5.11325 0.65925L1.15925 4.61325C0.734 5.0385 0.5 5.60325 0.5 6.204V11.796C0.5 12.3967 0.734 12.9615 1.15925 13.3868L5.11325 17.3407C5.5385 17.766 6.10325 18 6.704 18H12.296C12.8967 18 13.4615 17.766 13.8868 17.3407L17.8407 13.3868C18.266 12.9615 18.5 12.3967 18.5 11.796V6.204C18.5 5.60325 18.266 5.0385 17.8407 4.61325ZM17 11.796C17 11.9932 16.9198 12.1867 16.7803 12.3263L12.8263 16.2803C12.686 16.4198 12.4932 16.5 12.296 16.5H6.704C6.50675 16.5 6.31325 16.4198 6.17375 16.2803L2.21975 12.3263C2.08025 12.186 2 11.9932 2 11.796V6.204C2 6.00675 2.08025 5.81325 2.21975 5.67375L6.17375 1.71975C6.314 1.58025 6.50675 1.5 6.704 1.5H12.296C12.4932 1.5 12.6867 1.58025 12.8263 1.71975L16.7803 5.67375C16.9198 5.814 17 6.00675 17 6.204V11.796ZM13.1885 5.5635L14.249 6.624L9.70475 11.1683C9.41075 11.4622 9.01925 11.6242 8.60375 11.6242C8.18825 11.6242 7.79675 11.4623 7.50275 11.1675L4.79225 8.457L5.85275 7.3965L8.564 10.107C8.58275 10.1257 8.6255 10.125 8.645 10.107L13.1893 5.56275L13.1885 5.5635Z" fill="white"/>
</g>
<defs>
<clipPath id="clip0_3767_9179">
<rect width="18" height="18" fill="white" transform="translate(0.5)"/>
</clipPath>
</defs>
</svg>
