<svg width="98" height="26" viewBox="0 0 98 26" fill="none" xmlns="http://www.w3.org/2000/svg">
<g clip-path="url(#clip0_4624_12676)">
<path d="M13 25C19.6274 25 25 19.6274 25 13C25 6.37258 19.6274 1 13 1C6.37258 1 1 6.37258 1 13C1 19.6274 6.37258 25 13 25Z" fill="#F0F0F0"/>
<path d="M12.4775 12.9998H24.9993C24.9993 11.9167 24.8549 10.8675 24.5859 9.86938H12.4775V12.9998Z" fill="#D80027"/>
<path d="M12.4775 6.7391H23.238C22.5034 5.54041 21.5642 4.48089 20.4691 3.60864H12.4775V6.7391Z" fill="#D80027"/>
<path d="M13.0001 25C15.8243 25 18.4201 24.0239 20.4699 22.3914H5.53027C7.58012 24.0239 10.1759 25 13.0001 25Z" fill="#D80027"/>
<path d="M2.76098 19.2608H23.2384C23.8281 18.2985 24.2855 17.2467 24.5863 16.1304H1.41309C1.71388 17.2467 2.17124 18.2985 2.76098 19.2608Z" fill="#D80027"/>
<path d="M6.55863 2.87397H7.65217L6.63498 3.61295L7.02353 4.80869L6.00639 4.0697L4.98925 4.80869L5.32487 3.7757C4.42928 4.52172 3.64431 5.39575 2.99744 6.36963H3.34783L2.70034 6.84002C2.59947 7.0083 2.50272 7.17925 2.41 7.35273L2.71919 8.30434L2.14234 7.88523C1.99895 8.18903 1.8678 8.49967 1.74991 8.81678L2.09055 9.86528H3.34783L2.33064 10.6043L2.71919 11.8L1.70205 11.061L1.09277 11.5037C1.03178 11.9939 1 12.4932 1 13H13C13 6.37262 13 5.59131 13 1C10.6294 1 8.41961 1.68766 6.55863 2.87397ZM7.02353 11.8L6.00639 11.061L4.98925 11.8L5.3778 10.6043L4.36061 9.86528H5.61789L6.00639 8.66955L6.39489 9.86528H7.65217L6.63498 10.6043L7.02353 11.8ZM6.63498 7.10861L7.02353 8.30434L6.00639 7.56536L4.98925 8.30434L5.3778 7.10861L4.36061 6.36963H5.61789L6.00639 5.17389L6.39489 6.36963H7.65217L6.63498 7.10861ZM11.3279 11.8L10.3107 11.061L9.29359 11.8L9.68214 10.6043L8.66495 9.86528H9.92223L10.3107 8.66955L10.6992 9.86528H11.9565L10.9393 10.6043L11.3279 11.8ZM10.9393 7.10861L11.3279 8.30434L10.3107 7.56536L9.29359 8.30434L9.68214 7.10861L8.66495 6.36963H9.92223L10.3107 5.17389L10.6992 6.36963H11.9565L10.9393 7.10861ZM10.9393 3.61295L11.3279 4.80869L10.3107 4.0697L9.29359 4.80869L9.68214 3.61295L8.66495 2.87397H9.92223L10.3107 1.67823L10.6992 2.87397H11.9565L10.9393 3.61295Z" fill="#0052B4"/>
</g>
<rect x="0.5" y="0.5" width="25" height="25" rx="12.5" stroke="#0E1214"/>
<g clip-path="url(#clip1_4624_12676)">
<path d="M31 25C37.6274 25 43 19.6274 43 13C43 6.37258 37.6274 1 31 1C24.3726 1 19 6.37258 19 13C19 19.6274 24.3726 25 31 25Z" fill="#F0F0F0"/>
<path d="M35.174 13.0001C35.174 14.0435 33.3052 16.6522 31.0001 16.6522C28.6949 16.6522 26.8262 14.0435 26.8262 13.0001C26.8262 10.6948 28.6949 8.82617 31.0001 8.82617C33.3052 8.82617 35.174 10.6948 35.174 13.0001Z" fill="#D80027"/>
<path d="M35.174 13C35.174 15.3052 33.3052 17.1739 31.0001 17.1739C28.6949 17.1739 26.8262 15.3052 26.8262 13" fill="#0052B4"/>
<path d="M35.4238 16.6895L36.5304 15.5829L37.2682 16.3206L36.1616 17.4272L35.4238 16.6895Z" fill="black"/>
<path d="M33.5791 18.5339L34.6857 17.4273L35.4234 18.1651L34.3168 19.2717L33.5791 18.5339Z" fill="black"/>
<path d="M37.6367 18.9026L38.7433 17.796L39.4811 18.5337L38.3745 19.6403L37.6367 18.9026Z" fill="black"/>
<path d="M35.792 20.7473L36.8986 19.6407L37.6363 20.3785L36.5297 21.4851L35.792 20.7473Z" fill="black"/>
<path d="M36.5303 17.7961L37.6369 16.6895L38.3746 17.4273L37.268 18.5339L36.5303 17.7961Z" fill="black"/>
<path d="M34.6865 19.6404L35.7931 18.5338L36.5309 19.2715L35.4243 20.3781L34.6865 19.6404Z" fill="black"/>
<path d="M37.6416 9.3125L34.6907 6.36156L35.4284 5.62382L38.3793 8.57476L37.6416 9.3125Z" fill="black"/>
<path d="M34.6904 8.5752L33.5838 7.4686L34.3215 6.73089L35.4281 7.83748L34.6904 8.5752Z" fill="black"/>
<path d="M36.5352 10.4199L35.4286 9.31332L36.1663 8.57561L37.2729 9.68221L36.5352 10.4199Z" fill="black"/>
<path d="M36.9033 6.36157L35.7967 5.25497L36.5345 4.51723L37.6411 5.62383L36.9033 6.36157Z" fill="black"/>
<path d="M38.749 8.20654L37.6424 7.09994L38.3802 6.3622L39.4868 7.4688L38.749 8.20654Z" fill="black"/>
<path d="M23.2539 17.7939L26.2048 20.7449L25.4671 21.4826L22.5162 18.5317L23.2539 17.7939Z" fill="black"/>
<path d="M26.2051 18.5312L27.3117 19.6378L26.574 20.3756L25.4674 19.269L26.2051 18.5312Z" fill="black"/>
<path d="M24.3604 16.6873L25.467 17.7939L24.7292 18.5316L23.6226 17.425L24.3604 16.6873Z" fill="black"/>
<path d="M25.4668 15.5803L28.4177 18.5313L27.68 19.269L24.7291 16.3181L25.4668 15.5803Z" fill="black"/>
<path d="M26.2051 5.25269L23.2541 8.20363L22.5164 7.46588L25.4673 4.51494L26.2051 5.25269Z" fill="black"/>
<path d="M27.3115 6.35913L24.3606 9.31007L23.6228 8.57233L26.5738 5.62139L27.3115 6.35913Z" fill="black"/>
<path d="M28.4189 7.46631L25.468 10.4172L24.7303 9.67954L27.6812 6.7286L28.4189 7.46631Z" fill="black"/>
</g>
<g clip-path="url(#clip2_4624_12676)">
<path d="M49 25C55.6274 25 61 19.6274 61 13C61 6.37258 55.6274 1 49 1C42.3726 1 37 6.37258 37 13C37 19.6274 42.3726 25 49 25Z" fill="#F0F0F0"/>
<path d="M61.0004 13C61.0004 8.24242 58.2317 4.13167 54.2178 2.19067V23.8092C58.2317 21.8682 61.0004 17.7575 61.0004 13Z" fill="#D80027"/>
<path d="M37 13C37 17.7575 39.7687 21.8682 43.7826 23.8092V2.19067C39.7687 4.13167 37 8.24242 37 13Z" fill="#D80027"/>
<path d="M51.087 14.5653L53.174 13.5218L52.1305 13.0001V11.9566L50.0435 13.0001L51.087 10.9131H50.0435L49.0001 9.3479L47.9566 10.9131H46.9131L47.9566 13.0001L45.8696 11.9566V13.0001L44.8262 13.5218L46.9131 14.5653L46.3914 15.6088H48.4783V17.174H49.5218V15.6088H51.6088L51.087 14.5653Z" fill="#D80027"/>
</g>
<g clip-path="url(#clip3_4624_12676)">
<path d="M67 25C73.6274 25 79 19.6274 79 13C79 6.37258 73.6274 1 67 1C60.3726 1 55 6.37258 55 13C55 19.6274 60.3726 25 67 25Z" fill="#D80027"/>
<path d="M61.5672 8.30322L62.6031 11.4907H65.9547L63.2453 13.4642L64.2812 16.6517L61.5672 14.6829L58.8531 16.6517L59.8938 13.4642L57.1797 11.4907H60.5312L61.5672 8.30322Z" fill="#FFDA44"/>
<path d="M69.227 19.586L68.4348 18.611L67.2629 19.0657L67.9426 18.011L67.1504 17.0313L68.3645 17.3547L69.0488 16.3L69.1145 17.5563L70.3332 17.8797L69.1566 18.3297L69.227 19.586Z" fill="#FFDA44"/>
<path d="M70.802 16.7266L71.177 15.5266L70.1504 14.8L71.4066 14.7813L71.777 13.5813L72.1848 14.7719L73.441 14.7579L72.4332 15.5079L72.8363 16.6985L71.8098 15.9719L70.802 16.7266Z" fill="#FFDA44"/>
<path d="M72.9246 9.80796L72.3715 10.9376L73.2715 11.8142L72.0293 11.6361L71.4762 12.7611L71.2605 11.5236L70.0137 11.3455L71.1293 10.7595L70.9137 9.51733L71.8137 10.3939L72.9246 9.80796Z" fill="#FFDA44"/>
<path d="M69.2592 6.38599L69.1654 7.63755L70.3326 8.11099L69.1092 8.41099L69.0201 9.66724L68.3592 8.59849L67.1357 8.89849L67.9467 7.93755L67.2811 6.87349L68.4482 7.34692L69.2592 6.38599Z" fill="#FFDA44"/>
</g>
<rect x="72.5" y="0.5" width="25" height="25" rx="12.5" fill="#26292B"/>
<rect x="72.5" y="0.5" width="25" height="25" rx="12.5" stroke="#0E1214"/>
<path d="M81.348 18.108C79.584 18.108 78.48 17.004 78.504 15.348H79.452C79.416 16.488 80.172 17.256 81.348 17.256C82.512 17.256 83.28 16.584 83.28 15.54C83.28 14.448 82.572 13.92 81.516 13.92H80.628V13.152H81.48C82.572 13.152 83.148 12.48 83.148 11.592C83.148 10.632 82.44 10.092 81.384 10.092C80.196 10.092 79.524 10.836 79.512 11.964H78.576C78.552 10.32 79.68 9.24 81.408 9.24C83.088 9.24 84.156 10.128 84.156 11.496C84.156 12.48 83.592 13.212 82.752 13.476V13.536C83.724 13.764 84.288 14.544 84.288 15.612C84.288 17.112 83.112 18.108 81.348 18.108ZM88.5495 18.096C86.5215 18.096 85.5135 16.668 85.5135 14.076C85.5135 10.752 86.5695 9.24 88.6695 9.24C90.2655 9.24 91.2495 10.104 91.3815 11.46H90.4455C90.3255 10.584 89.6295 10.092 88.6695 10.092C86.9055 10.092 86.5095 11.652 86.4855 13.872H86.5455C86.8095 12.96 87.6615 12.372 88.8135 12.372C90.3975 12.372 91.4775 13.488 91.4775 15.204C91.4775 17.004 90.2775 18.096 88.5495 18.096ZM88.5735 17.244C89.7255 17.244 90.4815 16.428 90.4815 15.168C90.4815 13.908 89.7255 13.128 88.5975 13.128C87.3735 13.128 86.6415 14.04 86.6415 15.24C86.6415 16.488 87.4215 17.244 88.5735 17.244Z" fill="white"/>
<defs>
<clipPath id="clip0_4624_12676">
<rect x="1" y="1" width="24" height="24" rx="12" fill="white"/>
</clipPath>
<clipPath id="clip1_4624_12676">
<rect width="24" height="24" fill="white" transform="translate(19 1)"/>
</clipPath>
<clipPath id="clip2_4624_12676">
<rect width="24" height="24" fill="white" transform="translate(37 1)"/>
</clipPath>
<clipPath id="clip3_4624_12676">
<rect width="24" height="24" fill="white" transform="translate(55 1)"/>
</clipPath>
</defs>
</svg>
