<svg width="19" height="18" viewBox="0 0 19 18" fill="none" xmlns="http://www.w3.org/2000/svg">
<g clip-path="url(#clip0_3469_1808)">
<path d="M9.5 0C7.71997 0 5.97991 0.527841 4.49987 1.51677C3.01983 2.50571 1.86628 3.91131 1.18509 5.55585C0.5039 7.20038 0.32567 9.00998 0.672937 10.7558C1.0202 12.5016 1.87737 14.1053 3.13604 15.364C4.39472 16.6226 5.99836 17.4798 7.74419 17.8271C9.49002 18.1743 11.2996 17.9961 12.9442 17.3149C14.5887 16.6337 15.9943 15.4802 16.9832 14.0001C17.9722 12.5201 18.5 10.78 18.5 9C18.4974 6.61384 17.5484 4.32616 15.8611 2.63889C14.1738 0.951621 11.8862 0.00258081 9.5 0V0ZM17 9C17.0005 10.4619 16.5712 11.8917 15.7655 13.1115C15.1188 12.3916 14.7577 11.4602 14.75 10.4925V9H10.25C10.0511 9 9.86033 8.92098 9.71967 8.78033C9.57902 8.63968 9.5 8.44891 9.5 8.25V7.5H11.75V4.5H13.9355L14.7673 3.66825C15.4746 4.36431 16.0364 5.19423 16.4197 6.10963C16.8031 7.02503 17.0003 8.00758 17 9ZM2.03675 9.72225L5.0645 12.75H8C8.19892 12.75 8.38968 12.829 8.53033 12.9697C8.67099 13.1103 8.75 13.3011 8.75 13.5V16.4618C7.02515 16.2857 5.4143 15.5184 4.1907 14.29C2.9671 13.0616 2.20609 11.4478 2.03675 9.72225ZM10.25 16.4618V13.5C10.25 12.9033 10.013 12.331 9.59099 11.909C9.16904 11.4871 8.59674 11.25 8 11.25H5.6855L2.12225 7.68675C2.33689 6.46665 2.85106 5.31892 3.61864 4.34654C4.38621 3.37415 5.38319 2.60753 6.5201 2.11546C7.65701 1.62339 8.89831 1.42126 10.1326 1.52721C11.3669 1.63316 12.5556 2.04387 13.592 2.7225L13.3145 3H10.25V6H8V8.25C8 8.84674 8.23706 9.41903 8.65901 9.84099C9.08097 10.2629 9.65327 10.5 10.25 10.5H13.25C13.2482 11.9209 13.8066 13.2852 14.804 14.2973C13.5824 15.5243 11.9728 16.2893 10.25 16.4618Z" fill="#9CA3AF"/>
</g>
<defs>
<clipPath id="clip0_3469_1808">
<rect width="18" height="18" fill="white" transform="translate(0.5)"/>
</clipPath>
</defs>
</svg>
