<svg width="18" height="18" viewBox="0 0 18 18" fill="none" xmlns="http://www.w3.org/2000/svg">
<g clip-path="url(#clip0_3982_6422)">
<path d="M2.30258 5.475C2.55758 4.0425 3.80258 3 5.25758 3H5.37758C5.29508 2.7675 5.25008 2.5125 5.25008 2.25C5.25008 1.0125 6.26258 0 7.50008 0H10.5001C11.7376 0 12.7501 1.0125 12.7501 2.25C12.7501 2.5125 12.7051 2.7675 12.6226 3H12.7426C14.1976 3 15.4426 4.0425 15.6976 5.475L17.3926 15H12.0001C12.0001 16.6575 10.6576 18 9.00008 18C7.34258 18 6.00008 16.6575 6.00008 15H0.607578L2.31008 5.475H2.30258ZM11.2501 2.25C11.2501 1.8375 10.9126 1.5 10.5001 1.5H7.50008C7.08758 1.5 6.75008 1.8375 6.75008 2.25C6.75008 2.6625 7.08758 3 7.50008 3H10.5001C10.9126 3 11.2501 2.6625 11.2501 2.25ZM9.00008 16.5C9.82508 16.5 10.5001 15.825 10.5001 15H7.50008C7.50008 15.825 8.17508 16.5 9.00008 16.5ZM15.6076 13.5L14.2201 5.7375C14.0926 5.0175 13.4701 4.5 12.7426 4.5H5.25758C4.53008 4.5 3.90758 5.0175 3.78008 5.7375L2.39258 13.5H15.6076Z" fill="white"/>
</g>
<defs>
<clipPath id="clip0_3982_6422">
<rect width="18" height="18" fill="white" transform="matrix(-1 0 0 1 18 0)"/>
</clipPath>
</defs>
</svg>
