<svg width="20" height="20" viewBox="0 0 20 20" fill="none" xmlns="http://www.w3.org/2000/svg">
<g clip-path="url(#clip0_3740_5402)">
<path d="M11.8107 13.0533C12.0398 12.7358 12.1782 12.35 12.1782 11.9292C12.1782 11.0075 11.509 10.2442 10.6448 10.0525L10.6432 9.16667H9.30982L9.30398 10H7.91648V16.6667H9.33315V17.5H10.6665V16.6667L10.859 16.6425C11.8898 16.5208 12.6923 15.6533 12.6923 14.59C12.6923 13.9783 12.2915 13.3342 11.8107 13.0542V13.0533ZM9.16648 11.3325H10.2482C10.5765 11.3325 10.844 11.6 10.844 11.9283C10.844 12.2342 10.609 12.4783 10.3115 12.5117H9.16648V11.3325ZM10.6148 15.3325H9.16648L9.15565 13.845H10.6157C11.0257 13.845 11.3598 14.1783 11.3598 14.5883C11.3598 14.9983 11.0265 15.3325 10.6157 15.3325H10.6148ZM10.8282 6.72334L10.8157 2.48667L13.5615 5.17751L14.7282 3.98751L11.1573 0.48834C10.5082 -0.160827 9.44982 -0.160827 8.80065 0.48834L5.25898 4.03001L6.43732 5.20834L9.14982 2.50417L9.16232 6.72501C5.88148 7.13917 3.33398 9.94167 3.33398 13.3333C3.33398 17.0092 6.32482 20 10.0007 20C13.6765 20 16.6673 17.0092 16.6673 13.3333C16.6673 9.93834 14.1148 7.13417 10.829 6.72417L10.8282 6.72334ZM9.99982 18.3325C7.24232 18.3325 4.99982 16.09 4.99982 13.3325C4.99982 10.575 7.24232 8.33251 9.99982 8.33251C12.7573 8.33251 14.9998 10.575 14.9998 13.3325C14.9998 16.09 12.7573 18.3325 9.99982 18.3325Z" fill="#D2D5DA"/>
</g>
<defs>
<clipPath id="clip0_3740_5402">
<rect width="20" height="20" fill="white"/>
</clipPath>
</defs>
</svg>
