<svg width="16" height="16" viewBox="0 0 16 16" fill="none" xmlns="http://www.w3.org/2000/svg">
<g clip-path="url(#clip0_3420_854)">
<path d="M7.33333 7.33333H0V2C0 1.46957 0.210714 0.960859 0.585786 0.585786C0.960859 0.210714 1.46957 0 2 0L7.33333 0V7.33333ZM1.33333 6H6V1.33333H2C1.82319 1.33333 1.65362 1.40357 1.5286 1.5286C1.40357 1.65362 1.33333 1.82319 1.33333 2V6Z" fill="#D2D5DA"/>
<path d="M16.0003 7.33333H8.66699V0H14.0003C14.5308 0 15.0395 0.210714 15.4145 0.585786C15.7896 0.960859 16.0003 1.46957 16.0003 2V7.33333ZM10.0003 6H14.667V2C14.667 1.82319 14.5967 1.65362 14.4717 1.5286C14.3467 1.40357 14.1771 1.33333 14.0003 1.33333H10.0003V6Z" fill="#D2D5DA"/>
<path d="M7.33333 16H2C1.46957 16 0.960859 15.7892 0.585786 15.4142C0.210714 15.0391 0 14.5304 0 14L0 8.66663H7.33333V16ZM1.33333 9.99996V14C1.33333 14.1768 1.40357 14.3463 1.5286 14.4714C1.65362 14.5964 1.82319 14.6666 2 14.6666H6V9.99996H1.33333Z" fill="#D2D5DA"/>
<path d="M14.0003 16H8.66699V8.66663H16.0003V14C16.0003 14.5304 15.7896 15.0391 15.4145 15.4142C15.0395 15.7892 14.5308 16 14.0003 16ZM10.0003 14.6666H14.0003C14.1771 14.6666 14.3467 14.5964 14.4717 14.4714C14.5967 14.3463 14.667 14.1768 14.667 14V9.99996H10.0003V14.6666Z" fill="#D2D5DA"/>
</g>
<defs>
<clipPath id="clip0_3420_854">
<rect width="16" height="16" fill="white"/>
</clipPath>
</defs>
</svg>
