<svg width="16" height="16" viewBox="0 0 16 16" fill="none" xmlns="http://www.w3.org/2000/svg">
<g clip-path="url(#clip0_3420_878)">
<path d="M16 13.3333H9.87733C9.77773 13.0545 9.61747 12.8013 9.4081 12.5919C9.19874 12.3825 8.9455 12.2223 8.66667 12.1227V9.33333H12.6667C13.1971 9.33333 13.7058 9.12262 14.0809 8.74755C14.456 8.37247 14.6667 7.86377 14.6667 7.33333V5.33333H14V2C14 1.46957 13.7893 0.960859 13.4142 0.585786C13.0391 0.210714 12.5304 0 12 0L4 0C3.46957 0 2.96086 0.210714 2.58579 0.585786C2.21071 0.960859 2 1.46957 2 2V5.33333H1.33333V7.33333C1.33333 7.86377 1.54405 8.37247 1.91912 8.74755C2.29419 9.12262 2.8029 9.33333 3.33333 9.33333H7.33333V12.1227C7.0545 12.2223 6.80126 12.3825 6.5919 12.5919C6.38253 12.8013 6.22227 13.0545 6.12267 13.3333H0V14.6667H6.12267C6.25843 15.0564 6.5121 15.3942 6.8485 15.6332C7.18489 15.8722 7.58733 16.0006 8 16.0006C8.41267 16.0006 8.81511 15.8722 9.1515 15.6332C9.4879 15.3942 9.74157 15.0564 9.87733 14.6667H16V13.3333ZM3.33333 2C3.33333 1.82319 3.40357 1.65362 3.5286 1.5286C3.65362 1.40357 3.82319 1.33333 4 1.33333H12C12.1768 1.33333 12.3464 1.40357 12.4714 1.5286C12.5964 1.65362 12.6667 1.82319 12.6667 2V5.33333H9.724L9.05733 6H6.94267L6.276 5.33333H3.33333V2ZM2.66667 7.33333V6.66667H5.724L6.39067 7.33333H9.60933L10.276 6.66667H13.3333V7.33333C13.3333 7.51014 13.2631 7.67971 13.1381 7.80474C13.013 7.92976 12.8435 8 12.6667 8H3.33333C3.15652 8 2.98695 7.92976 2.86193 7.80474C2.7369 7.67971 2.66667 7.51014 2.66667 7.33333ZM8 14.6667C7.86815 14.6667 7.73925 14.6276 7.62962 14.5543C7.51999 14.4811 7.43454 14.3769 7.38408 14.2551C7.33362 14.1333 7.32042 13.9993 7.34614 13.8699C7.37187 13.7406 7.43536 13.6218 7.5286 13.5286C7.62183 13.4354 7.74062 13.3719 7.86994 13.3461C7.99926 13.3204 8.13331 13.3336 8.25512 13.3841C8.37694 13.4345 8.48106 13.52 8.55431 13.6296C8.62757 13.7393 8.66667 13.8681 8.66667 14C8.66667 14.1768 8.59643 14.3464 8.47141 14.4714C8.34638 14.5964 8.17681 14.6667 8 14.6667Z" fill="#D2D5DA"/>
</g>
<defs>
<clipPath id="clip0_3420_878">
<rect width="16" height="16" fill="white"/>
</clipPath>
</defs>
</svg>
