<svg width="21" height="20" viewBox="0 0 21 20" fill="none" xmlns="http://www.w3.org/2000/svg">
<g clip-path="url(#clip0_4815_6458)">
<path d="M15.6008 6.56575C16.5758 7.54075 16.5758 9.12575 15.6008 10.1008L13.4483 12.2541C13.2858 12.4166 13.0725 12.4983 12.8592 12.4983C12.6458 12.4983 12.4325 12.4166 12.27 12.2541C11.9442 11.9283 11.9442 11.4016 12.27 11.0758L14.4225 8.92242C14.7475 8.59742 14.7475 8.06908 14.4225 7.74408L12.27 5.59075C11.9442 5.26492 11.9442 4.73825 12.27 4.41242C12.5958 4.08659 13.1225 4.08659 13.4483 4.41242L15.6008 6.56575ZM8.73 5.59075C9.05583 5.26492 9.05583 4.73825 8.73 4.41242C8.40417 4.08659 7.8775 4.08659 7.55167 4.41242L5.39917 6.56575C4.42417 7.54075 4.42417 9.12575 5.39917 10.1008L7.55167 12.2541C7.71417 12.4166 7.9275 12.4983 8.14083 12.4983C8.35417 12.4983 8.5675 12.4166 8.73 12.2541C9.05583 11.9283 9.05583 11.4016 8.73 11.0758L6.5775 8.92242C6.2525 8.59742 6.2525 8.06908 6.5775 7.74408L8.73 5.59075ZM20.5 4.99992V11.6666C20.5 13.9641 18.6308 15.8333 16.3333 15.8333H11.3333V17.4999H14.6667C15.1267 17.4999 15.5 17.8724 15.5 18.3333C15.5 18.7941 15.1267 19.1666 14.6667 19.1666H6.33333C5.87333 19.1666 5.5 18.7941 5.5 18.3333C5.5 17.8724 5.87333 17.4999 6.33333 17.4999H9.66667V15.8333H4.66667C2.36917 15.8333 0.5 13.9641 0.5 11.6666V4.99992C0.5 2.70242 2.36917 0.833252 4.66667 0.833252H16.3333C18.6308 0.833252 20.5 2.70242 20.5 4.99992ZM18.8333 4.99992C18.8333 3.62158 17.7117 2.49992 16.3333 2.49992H4.66667C3.28833 2.49992 2.16667 3.62158 2.16667 4.99992V11.6666C2.16667 13.0449 3.28833 14.1666 4.66667 14.1666H16.3333C17.7117 14.1666 18.8333 13.0449 18.8333 11.6666V4.99992Z" fill="white"/>
</g>
<defs>
<clipPath id="clip0_4815_6458">
<rect width="20" height="20" fill="white" transform="translate(0.5)"/>
</clipPath>
</defs>
</svg>
