<svg width="18" height="18" viewBox="0 0 18 18" fill="none" xmlns="http://www.w3.org/2000/svg">
<g clip-path="url(#clip0_4588_14594)">
<path d="M9.02414 14.25C9.31972 14.2505 9.61248 14.1926 9.88561 14.0796C10.1587 13.9666 10.4068 13.8007 10.6156 13.5915L13.5549 10.65L12.4944 9.5925L9.76964 12.318L9.75014 0H8.25014L8.26964 12.306L5.55464 9.591L4.49414 10.65L7.43339 13.5892C7.64195 13.7987 7.88985 13.9649 8.16284 14.0783C8.43583 14.1917 8.72854 14.2501 9.02414 14.25Z" fill="#9CA3AF"/>
<path d="M16.5 12.0002V15.7502C16.5 15.9491 16.421 16.1399 16.2803 16.2806C16.1397 16.4212 15.9489 16.5002 15.75 16.5002H2.25C2.05109 16.5002 1.86032 16.4212 1.71967 16.2806C1.57902 16.1399 1.5 15.9491 1.5 15.7502V12.0002H0V15.7502C0 16.347 0.237053 16.9193 0.65901 17.3412C1.08097 17.7632 1.65326 18.0002 2.25 18.0002H15.75C16.3467 18.0002 16.919 17.7632 17.341 17.3412C17.7629 16.9193 18 16.347 18 15.7502V12.0002H16.5Z" fill="#9CA3AF"/>
</g>
<defs>
<clipPath id="clip0_4588_14594">
<rect width="18" height="18" fill="white"/>
</clipPath>
</defs>
</svg>
