<svg width="18" height="18" viewBox="0 0 18 18" fill="none" xmlns="http://www.w3.org/2000/svg">
<g clip-path="url(#clip0_3398_1772)">
<path d="M8.97586 14.25C8.68028 14.2505 8.38752 14.1926 8.11439 14.0796C7.84127 13.9666 7.59317 13.8007 7.38436 13.5915L4.44511 10.65L5.50561 9.5925L8.23036 12.318L8.24986 0H9.74986L9.73036 12.306L12.4454 9.591L13.5059 10.65L10.5666 13.5892C10.358 13.7987 10.1101 13.9649 9.83716 14.0783C9.56417 14.1917 9.27146 14.2501 8.97586 14.25Z" fill="white"/>
<path d="M1.5 12V15.75C1.5 15.9489 1.57902 16.1397 1.71967 16.2803C1.86032 16.421 2.05109 16.5 2.25 16.5H15.75C15.9489 16.5 16.1397 16.421 16.2803 16.2803C16.421 16.1397 16.5 15.9489 16.5 15.75V12H18V15.75C18 16.3467 17.7629 16.919 17.341 17.341C16.919 17.7629 16.3467 18 15.75 18H2.25C1.65326 18 1.08097 17.7629 0.65901 17.341C0.237053 16.919 0 16.3467 0 15.75V12H1.5Z" fill="white"/>
</g>
<defs>
<clipPath id="clip0_3398_1772">
<rect width="18" height="18" fill="white" transform="matrix(-1 0 0 1 18 0)"/>
</clipPath>
</defs>
</svg>
