<svg width="18" height="18" viewBox="0 0 18 18" fill="none" xmlns="http://www.w3.org/2000/svg">
<g clip-path="url(#clip0_3768_6041)">
<path d="M14.25 14.2496H10.9395L0.707252 4.01733C0.268954 3.57796 0.0228119 2.98269 0.0228119 2.36208C0.0228119 1.74148 0.268954 1.1462 0.707252 0.706831C1.15299 0.280752 1.74587 0.0429687 2.3625 0.0429688C2.97913 0.0429688 3.57201 0.280752 4.01775 0.706831L14.25 10.9391V14.2496ZM12.75 11.5601L2.95725 1.76733C2.79706 1.6143 2.58404 1.5289 2.3625 1.5289C2.14096 1.5289 1.92794 1.6143 1.76775 1.76733C1.61029 1.92522 1.52187 2.1391 1.52187 2.36208C1.52187 2.58506 1.61029 2.79895 1.76775 2.95683L11.5605 12.7496H12.75V11.5601Z" fill="white"/>
<path d="M0.28425 5.7165L1.5 6.93225V12H6V16.5H16.5V2.25C16.5 2.05109 16.421 1.86032 16.2803 1.71967C16.1397 1.57902 15.9489 1.5 15.75 1.5H6.9315L5.71575 0.28425C5.60625 0.182718 5.49079 0.0877996 5.37 0L15.75 0C16.3467 0 16.919 0.237053 17.341 0.65901C17.7629 1.08097 18 1.65326 18 2.25V18H4.1895L0 13.8105V5.37075C0.0879879 5.4914 0.182896 5.60684 0.28425 5.7165ZM4.5 16.1895V13.5H1.8105L4.5 16.1895Z" fill="white"/>
</g>
<defs>
<clipPath id="clip0_3768_6041">
<rect width="18" height="18" fill="white" transform="matrix(-1 0 0 1 18 0)"/>
</clipPath>
</defs>
</svg>
