<svg width="24" height="24" viewBox="0 0 24 24" fill="none" xmlns="http://www.w3.org/2000/svg">
<path d="M20.4 3H3.6L3.3 3.3C1.2 5.7 0 8.8 0 12C0 17.5 2.2 22 5 22C7.2 22 8.3 18.8 8.8 17H15.2C15.7 18.8 16.8 22 19 22C21.8 22 24 17.5 24 12C24 8.8 22.8 5.7 20.7 3.3L20.4 3ZM19 20C18.4 20 17.4 17.9 17 15.8L16.8 15H7.2L7 15.8C6.6 17.9 5.6 20 5 20C4 20 2 16.9 2 12C2 9.5 2.9 7 4.5 5H19.6C21.2 7 22 9.5 22 12C22 16.9 20 20 19 20Z" fill="white"/>
<path d="M8 7.00049H6V9.00049H4V11.0005H6V13.0005H8V11.0005H10V9.00049H8V7.00049Z" fill="white"/>
<path d="M18.5 10.0005C19.3284 10.0005 20 9.32892 20 8.50049C20 7.67206 19.3284 7.00049 18.5 7.00049C17.6716 7.00049 17 7.67206 17 8.50049C17 9.32892 17.6716 10.0005 18.5 10.0005Z" fill="white"/>
<path d="M15.5 13.0005C16.3284 13.0005 17 12.3289 17 11.5005C17 10.6721 16.3284 10.0005 15.5 10.0005C14.6716 10.0005 14 10.6721 14 11.5005C14 12.3289 14.6716 13.0005 15.5 13.0005Z" fill="white"/>
</svg>
