<svg width="24" height="24" viewBox="0 0 24 24" fill="none" xmlns="http://www.w3.org/2000/svg">
<g clip-path="url(#clip0_4387_10465)">
<path d="M18.5066 8.98677C14.4286 4.48275 13.5022 0.979736 13.5022 0.979736C13.5022 0.979736 12.7959 1.29492 12.0009 2.01706L11 13.4908L12.0009 23.2963H12.0009C16.9197 23.2962 20.9072 19.3088 20.9072 14.39C20.9072 12.3582 19.7725 10.3849 18.5066 8.98677Z" fill="#FF6200"/>
<path d="M10.4987 3.98242C9.98861 5.00271 9.86845 6.15301 9.87333 7.03574C9.87802 7.89206 9.27477 8.63108 8.43511 8.79905C7.84847 8.91638 7.24203 8.73275 6.81898 8.30971L5.99475 7.48548C5.99475 7.48548 4.77286 9.17029 4.56347 9.48726C3.62294 10.911 3.0803 12.6206 3.094 14.4578C3.1305 19.3644 7.09335 23.2963 12.0001 23.2963V2.01709C11.48 2.48944 10.922 3.13586 10.4987 3.98242Z" fill="#FD7D21"/>
<path d="M19.0279 8.51439C16.9931 6.26695 15.7838 4.28854 15.1276 3.02456C14.4169 1.65549 14.184 0.80654 14.1822 0.799784L13.9707 0L13.2151 0.337001C13.1721 0.356189 12.6549 0.591944 12.0005 1.09883L11.5 1.98058L12.0005 3.01823C12.3916 2.57951 12.7949 2.25157 13.1194 2.02454C13.6487 3.37085 14.9904 6.15229 17.9846 9.45915C18.6516 10.1958 20.203 12.151 20.203 14.39C20.203 18.9129 16.5233 22.5926 12.0005 22.5926L11.5 23.4996L12.0005 24C17.2994 24 21.6105 19.689 21.6105 14.39C21.6105 12.4687 20.6692 10.3271 19.0279 8.51439Z" fill="#FFB62D"/>
<path d="M6.21707 20.2175C4.67361 18.6859 3.81467 16.6385 3.79839 14.4526C3.78619 12.8163 4.25404 11.2334 5.15132 9.8752C5.26087 9.7094 5.70033 9.0963 6.08181 8.56722L6.32197 8.80738C6.91275 9.39816 7.75433 9.65305 8.57377 9.48917C9.74143 9.25562 10.5842 8.22224 10.5777 7.03193C10.5736 6.29529 10.666 5.22292 11.1288 4.29717C11.3798 3.79507 11.6863 3.37099 12.0007 3.01832V1.09888C11.3114 1.63283 10.4699 2.46766 9.86989 3.66769C9.28273 4.84206 9.1653 6.14957 9.17022 7.03958C9.17308 7.55753 8.8061 8.00727 8.29767 8.10894C7.9412 8.18016 7.5745 8.06934 7.31721 7.81205L5.90986 6.4047L5.42573 7.07228C5.37548 7.14157 4.19234 8.77328 3.97695 9.0993C2.92513 10.6915 2.37668 12.5462 2.39089 14.463C2.40994 17.023 3.41667 19.4214 5.22563 21.2165C7.03445 23.0115 9.44056 24 12.0007 24V22.5926C9.81448 22.5926 7.76048 21.7491 6.21707 20.2175Z" fill="#FDCB02"/>
<path d="M12.0009 9.66675C11.9957 9.66675 11.9905 9.66694 11.9853 9.66694L10.8125 15.1716L11.9853 20.6762C11.9905 20.6762 11.9957 20.6764 12.0009 20.6764C15.0411 20.6764 17.5057 18.2118 17.5057 15.1716C17.5057 12.1314 15.0411 9.66675 12.0009 9.66675Z" fill="#ED3800"/>
<path d="M6.49609 15.1716C6.49609 18.2067 8.95226 20.6679 11.9853 20.6763V9.66699C8.95231 9.67544 6.49609 12.1366 6.49609 15.1716Z" fill="#FF4B00"/>
<path d="M14.987 11.9404H13.4268L11.9848 14.0521L11.5 15.993L11.9848 16.337L14.987 11.9404Z" fill="#D9E7EC"/>
<path d="M14.3695 14.8948C13.3909 14.8948 12.6523 15.5502 12.6523 16.6951C12.6523 17.8491 13.3909 18.4953 14.3695 18.4953C15.3482 18.4953 16.0867 17.8491 16.0867 16.6951C16.0867 15.5502 15.3481 14.8948 14.3695 14.8948ZM14.3695 17.4982C14.1664 17.4982 13.9633 17.3136 13.9633 16.695C13.9633 16.0765 14.1664 15.8918 14.3695 15.8918C14.5726 15.8918 14.7757 16.0765 14.7757 16.695C14.7757 17.3136 14.5726 17.4982 14.3695 17.4982Z" fill="#D9E7EC"/>
<path d="M10.5758 18.403L11.9866 16.3371V14.0522L9.01562 18.403H10.5758Z" fill="#FAFCFD"/>
<path d="M11.3504 13.6484C11.3504 12.5037 10.6118 11.8481 9.6332 11.8481C8.65457 11.8481 7.91602 12.5036 7.91602 13.6484C7.91602 14.8024 8.65457 15.4487 9.6332 15.4487C10.6118 15.4487 11.3504 14.8024 11.3504 13.6484ZM9.227 13.6484C9.227 13.0299 9.4301 12.8452 9.6332 12.8452C9.8363 12.8452 10.0394 13.0299 10.0394 13.6484C10.0394 14.267 9.8363 14.4516 9.6332 14.4516C9.4301 14.4516 9.227 14.267 9.227 13.6484Z" fill="#FAFCFD"/>
</g>
<defs>
<clipPath id="clip0_4387_10465">
<rect width="24" height="24" fill="white"/>
</clipPath>
</defs>
</svg>
