<svg width="16" height="16" viewBox="0 0 16 16" fill="none" xmlns="http://www.w3.org/2000/svg">
<path d="M7.9999 0.00463867C6.68087 0.00478756 5.39152 0.396218 4.29502 1.1294C3.19853 1.86258 2.34417 2.90455 1.84006 4.12345C1.33596 5.34236 1.20476 6.68341 1.46308 7.9769C1.7214 9.27039 2.35762 10.4582 3.29123 11.39L7.9999 15.9953L12.7139 11.3846C13.646 10.4523 14.2807 9.26443 14.5378 7.97135C14.7949 6.67827 14.6628 5.33799 14.1583 4.11997C13.6537 2.90194 12.7994 1.86086 11.7032 1.12835C10.607 0.395839 9.31829 0.00478836 7.9999 0.00463867ZM11.7766 10.4366L7.9999 14.1333L4.22857 10.442C3.48294 9.69631 2.9751 8.74634 2.76921 7.71214C2.56333 6.67793 2.66865 5.6059 3.07185 4.63153C3.47506 3.65717 4.15807 2.82419 5.03454 2.23788C5.91102 1.65158 6.94164 1.33825 7.99614 1.3375C9.05064 1.33676 10.0817 1.64863 10.959 2.2337C11.8363 2.81877 12.5205 3.65077 12.9251 4.62457C13.3297 5.59837 13.4365 6.67025 13.2321 7.70474C13.0276 8.73924 12.5211 9.68992 11.7766 10.4366ZM10.6786 4.94864L9.0119 3.67531C8.72102 3.45411 8.36566 3.33434 8.00023 3.33434C7.63481 3.33434 7.27945 3.45411 6.98857 3.67531L5.3219 4.94864C5.11874 5.10456 4.95402 5.30498 4.84042 5.53451C4.72681 5.76403 4.66734 6.01654 4.66657 6.27264V9.33331H11.3332V6.27264C11.3324 6.01661 11.273 5.76417 11.1595 5.53467C11.0461 5.30516 10.8815 5.1047 10.6786 4.94864ZM9.9999 7.99997H8.66657V6.66664H7.33323V7.99997H5.9999V6.27264C5.9999 6.22089 6.01195 6.16985 6.03509 6.12357C6.05824 6.07728 6.09184 6.03702 6.13323 6.00597L7.7999 4.73331C7.85807 4.68876 7.9293 4.66462 8.00257 4.66462C8.07584 4.66462 8.14706 4.68876 8.20523 4.73331L9.8719 6.00664C9.9133 6.03769 9.9469 6.07795 9.97004 6.12423C9.99319 6.17052 10.0052 6.22156 10.0052 6.27331L9.9999 7.99997Z" fill="#D2D5DA"/>
</svg>
