<svg width="24" height="24" viewBox="0 0 24 24" fill="none" xmlns="http://www.w3.org/2000/svg">
<path d="M11.9999 0.00695801C10.0213 0.00718134 8.08728 0.594328 6.44254 1.6941C4.79779 2.79386 3.51625 4.35682 2.76009 6.18518C2.00393 8.01353 1.80714 10.0251 2.19462 11.9654C2.5821 13.9056 3.53643 15.6873 4.93685 17.085L11.9999 23.993L19.0709 17.077C20.469 15.6784 21.4211 13.8967 21.8067 11.957C22.1924 10.0174 21.9943 8.00699 21.2374 6.17995C20.4806 4.35291 19.1991 2.79129 17.5548 1.69253C15.9106 0.593758 13.9774 0.00718254 11.9999 0.00695801ZM17.6649 15.655L11.9999 21.2L6.34285 15.663C5.22442 14.5445 4.46265 13.1195 4.15382 11.5682C3.84499 10.0169 4.00297 8.40885 4.60778 6.9473C5.21259 5.48575 6.2371 4.23629 7.55182 3.35683C8.86653 2.47736 10.4125 2.00738 11.9942 2.00626C13.576 2.00514 15.1225 2.47294 16.4385 3.35055C17.7545 4.22815 18.7807 5.47616 19.3876 6.93686C19.9945 8.39755 20.1547 10.0054 19.8481 11.5571C19.5415 13.1089 18.7817 14.5349 17.6649 15.655ZM16.0179 7.42296L13.5179 5.51296C13.0815 5.18116 12.5485 5.00151 12.0004 5.00151C11.4522 5.00151 10.9192 5.18116 10.4829 5.51296L7.98285 7.42296C7.67811 7.65684 7.43104 7.95747 7.26063 8.30176C7.09022 8.64604 7.00101 9.02481 6.99985 9.40896V14H16.9999V9.40896C16.9987 9.02492 16.9095 8.64625 16.7393 8.302C16.5691 7.95775 16.3223 7.65704 16.0179 7.42296ZM14.9999 12H12.9999V9.99996H10.9999V12H8.99985V9.40896C8.99985 9.33134 9.01793 9.25478 9.05264 9.18535C9.08735 9.11592 9.13775 9.05553 9.19985 9.00896L11.6999 7.09996C11.7871 7.03314 11.8939 6.99693 12.0039 6.99693C12.1138 6.99693 12.2206 7.03314 12.3079 7.09996L14.8079 9.00996C14.87 9.05653 14.9204 9.11692 14.9551 9.18635C14.9898 9.25578 15.0079 9.33234 15.0079 9.40996L14.9999 12Z" fill="white"/>
</svg>
