<svg width="18" height="18" viewBox="0 0 18 18" fill="none" xmlns="http://www.w3.org/2000/svg">
<g clip-path="url(#clip0_4479_10959)">
<path d="M10.5608 4.1895L0.675037 14.0768C0.268851 14.5123 0.0476183 15.0885 0.0579644 15.684C0.0683105 16.2794 0.309427 16.8476 0.730499 17.2688C1.15157 17.69 1.7197 17.9312 2.31517 17.9417C2.91063 17.9522 3.4869 17.7311 3.92254 17.325L13.8105 7.43925L10.5608 4.1895ZM11.6895 7.43925L9.75004 9.37875L8.62504 8.25L10.5645 6.3105L11.6895 7.43925ZM2.86204 16.266C2.71042 16.4105 2.509 16.4911 2.29954 16.4911C2.09008 16.4911 1.88865 16.4105 1.73704 16.266C1.5881 16.1167 1.50446 15.9144 1.50446 15.7035C1.50446 15.4926 1.5881 15.2903 1.73704 15.141L7.56379 9.3135L8.69254 10.4423L2.86204 16.266ZM15.9998 10.971L18 11.9715L15.9998 12.975L15 14.9715L14.0003 12.975L12 11.9715L14.0003 10.971L15 8.9715L15.9998 10.971ZM5.00029 3.99975L3.00004 3L5.00029 2.00025L6.00004 0L6.99979 2.00025L9.00004 3L6.99979 3.99975L6.00004 6L5.00029 3.99975ZM14.4998 3.50025L12.75 2.625L14.4998 1.74975L15.375 0L16.2503 1.74975L18 2.625L16.2503 3.50025L15.375 5.25L14.4998 3.50025Z" fill="white"/>
</g>
<defs>
<clipPath id="clip0_4479_10959">
<rect width="18" height="18" fill="white"/>
</clipPath>
</defs>
</svg>
