<svg width="24" height="24" viewBox="0 0 24 24" fill="none" xmlns="http://www.w3.org/2000/svg">
<g clip-path="url(#clip0_4777_16606)">
<path d="M22.769 9.343L21 7.649V3C21 1.346 19.654 0 18 0H6C4.346 0 3 1.346 3 3V7.652L1.233 9.343C0.451 10.094 0.002 11.147 0.002 12.231L0 24H24V12.231C24 11.145 23.552 10.092 22.769 9.342V9.343ZM6 2H18C18.552 2 19 2.449 19 3V12.242L14.121 17.121C12.988 18.254 11.012 18.254 9.879 17.121L5 12.242V3C5 2.449 5.448 2 6 2ZM22 22H2C2 22 1.996 12.135 2 12.087L8.465 18.535C9.409 19.479 10.664 19.999 12 19.999C13.336 19.999 14.591 19.479 15.535 18.535L22 12.085C22.004 12.134 22 22 22 22ZM6 8C6 5.794 7.794 4 10 4H15.5C16.879 4 18 5.122 18 6.5C18 7.878 16.879 9 15.5 9H10V7H15.5C15.775 7 16 6.776 16 6.5C16 6.224 15.775 6 15.5 6H10C8.897 6 8 6.897 8 8C8 9.103 8.897 10 10 10H16V12H10C7.794 12 6 10.206 6 8Z" fill="#FF975C"/>
</g>
<defs>
<clipPath id="clip0_4777_16606">
<rect width="24" height="24" fill="white"/>
</clipPath>
</defs>
</svg>
