<svg width="20" height="20" viewBox="0 0 20 20" fill="none" xmlns="http://www.w3.org/2000/svg">
<path d="M8.33333 1.66667C8.33333 0.745833 9.07917 0 10 0C10.9208 0 11.6667 0.745833 11.6667 1.66667C11.6667 2.28167 11.3292 2.81333 10.8333 3.1025V6.25C10.8333 6.71083 10.4608 7.08333 10 7.08333C9.53917 7.08333 9.16667 6.71083 9.16667 6.25V3.1025C8.67083 2.81417 8.33333 2.2825 8.33333 1.66667ZM17.0833 12.5C16.7908 12.5 16.52 12.5817 16.2808 12.7142L13.6567 11.1767C13.2583 10.9442 12.7483 11.0775 12.5158 11.4742C12.2842 11.8717 12.4167 12.3825 12.8133 12.615L15.4183 14.1417C15.4183 14.15 15.4158 14.1583 15.4158 14.1667C15.4158 15.0875 16.1617 15.8333 17.0825 15.8333C18.0033 15.8333 18.7492 15.0875 18.7492 14.1667C18.7492 13.2458 18.0042 12.5 17.0833 12.5ZM17.07 4.03333L14.06 2.31333C13.6608 2.08333 13.1508 2.22333 12.9233 2.62333C12.695 3.0225 12.8342 3.53167 13.2333 3.76L16.2375 5.47667L10.0008 9.04083L3.76417 5.47667L6.76833 3.76C7.1675 3.53167 7.30667 3.0225 7.07833 2.62333C6.85083 2.22333 6.34083 2.08333 5.94167 2.31333L2.93167 4.03333C1.89583 4.62583 1.25167 5.73417 1.25167 6.9275V10.4417C1.25167 10.9025 1.62417 11.275 2.085 11.275C2.54583 11.275 2.91833 10.9025 2.91833 10.4417V6.9275C2.91833 6.9225 2.92 6.91833 2.92 6.91417L9.16833 10.4842V17.6125L6.26667 15.9542C5.8675 15.7233 5.3575 15.865 5.13 16.2642C4.90167 16.6633 5.04083 17.1733 5.44 17.4008L8.34833 19.0625C8.85833 19.3542 9.43 19.4992 10.0017 19.4992C10.5733 19.4992 11.145 19.3533 11.655 19.0625L14.5633 17.4008C14.9625 17.1733 15.1017 16.6633 14.8733 16.2642C14.645 15.865 14.1358 15.7233 13.7367 15.9542L10.835 17.6125V10.4842L17.0833 6.91417C17.0833 6.91917 17.085 6.92333 17.085 6.9275V10.5342C17.085 10.995 17.4575 11.3675 17.9183 11.3675C18.3792 11.3675 18.7517 10.995 18.7517 10.5342V6.9275C18.7517 5.73417 18.1083 4.62583 17.0717 4.03333H17.07ZM7.17833 12.6075C7.57667 12.3758 7.71083 11.865 7.47917 11.4683C7.24833 11.07 6.73667 10.9358 6.34 11.1675L3.70083 12.705C3.46583 12.5792 3.20167 12.5008 2.91667 12.5008C1.99583 12.5008 1.25 13.2467 1.25 14.1675C1.25 15.0883 1.99583 15.8342 2.91667 15.8342C3.8375 15.8342 4.58333 15.0883 4.58333 14.1675C4.58333 14.1525 4.57917 14.1375 4.57917 14.1225L7.17917 12.6083L7.17833 12.6075Z" fill="white"/>
</svg>
