<svg width="23" height="21" viewBox="0 0 23 21" fill="none" xmlns="http://www.w3.org/2000/svg">
<path d="M18.4715 5.36031C18.3929 5.34853 18.3388 5.28116 18.3353 5.20304C18.2983 3.97406 17.1293 3.63748 16.7695 3.56371C16.7048 3.55014 16.6403 3.57754 16.6085 3.6321C16.4743 3.85853 16.1683 4.49991 16.4008 5.27681C16.4078 5.30498 16.4185 5.33136 16.4307 5.35775C16.5395 5.61159 17.0676 7.19328 14.0956 8.59055C12.6147 9.28649 11.3404 10.2299 10.3978 11.3515C10.6754 10.1453 11.0063 8.90894 11.3245 7.70198C12.8081 2.07833 7.38894 -0.786399 3.45141 1.05682C0.683071 2.35035 0.289687 4.75734 0.336491 6.22454C0.343466 6.50194 0.726395 6.58391 0.85187 6.33469C1.004 6.02987 1.22234 5.68612 1.5353 5.32855C2.31186 4.43435 3.63017 3.7986 5.067 3.97508C8.5163 4.40438 8.94603 7.88923 7.85851 10.8421C4.68508 19.4539 12.2935 20.5 12.2935 20.5C11.2219 19.7815 10.3829 18.3878 10.1468 16.6996C9.96981 15.4304 10.168 14.2298 10.6313 13.2982C11.068 12.2975 11.9701 11.2842 13.7012 10.3508C16.6174 8.77805 17.4007 7.53549 17.5087 6.80394C17.5406 6.5939 17.7413 6.45482 17.9544 6.48837C19.7184 6.77756 20.4212 7.77831 20.6954 8.4343C20.8298 8.75525 20.676 9.13563 20.3523 9.27574C19.8033 9.51395 18.8579 9.85052 17.7669 9.92429C17.6412 9.93147 17.5369 10.1215 17.6502 10.1753C19.4149 11.0086 21.8307 10.1325 22.2861 9.47937C22.3082 9.44761 22.3329 9.41303 22.3329 9.37384C22.3558 6.16716 19.1754 5.47327 18.4715 5.35954V5.36031Z" fill="white"/>
</svg>
