<svg width="21" height="21" viewBox="0 0 21 21" fill="none" xmlns="http://www.w3.org/2000/svg">
<path fill-rule="evenodd" clip-rule="evenodd" d="M6.38333 10.4999L1.44972 5.30661C1.19012 5.03395 0.987519 4.7135 0.853493 4.36357C0.719467 4.01364 0.656644 3.64109 0.668612 3.2672C0.680581 2.89331 0.767106 2.52542 0.923246 2.18453C1.07939 1.84364 1.30208 1.53644 1.5786 1.28048L1.59115 1.26857C2.15597 0.751414 2.90526 0.475718 3.67542 0.501681C4.44558 0.527643 5.17405 0.853154 5.70177 1.40714L12.4875 8.55085C12.9897 9.07898 13.2692 9.77596 13.2692 10.5001C13.2692 11.2243 12.9897 11.9212 12.4875 12.4494L5.70177 19.5921C5.17411 20.1462 4.44568 20.4718 3.67552 20.4978C2.90536 20.5239 2.15604 20.2483 1.59115 19.7312C1.31198 19.4759 1.08675 19.1686 0.92844 18.8271C0.770128 18.4856 0.681859 18.1165 0.668714 17.7412C0.655569 17.3659 0.717807 16.9917 0.851846 16.6402C0.985885 16.2887 1.18908 15.9668 1.44972 15.6931L6.38333 10.4999Z" fill="white"/>
<path opacity="0.6" fill-rule="evenodd" clip-rule="evenodd" d="M14.9504 10.5001L19.885 5.30685C20.1445 5.03416 20.3471 4.71368 20.4811 4.36374C20.6151 4.01379 20.6779 3.64123 20.6658 3.26734C20.6538 2.89345 20.5673 2.52556 20.4111 2.18469C20.2549 1.84381 20.0322 1.53664 19.7556 1.28071L19.7431 1.26881C19.1782 0.751504 18.4288 0.475717 17.6585 0.50168C16.8883 0.527643 16.1597 0.853247 15.632 1.40738L8.84674 8.55109C8.34419 9.07906 8.06445 9.7761 8.06445 10.5003C8.06445 11.2246 8.34419 11.9216 8.84674 12.4496L15.632 19.5924C16.1596 20.1466 16.8882 20.4723 17.6584 20.4983C18.4287 20.5244 19.1782 20.2487 19.7431 19.7314C20.0211 19.4771 20.2456 19.1712 20.4038 18.8312C20.5619 18.4913 20.6507 18.1239 20.6649 17.7501C20.6791 17.3763 20.6185 17.0034 20.4866 16.6527C20.3547 16.302 20.154 15.9804 19.8961 15.7062L19.885 15.6934L14.9504 10.5001Z" fill="white"/>
</svg>
