<svg width="16" height="16" viewBox="0 0 16 16" fill="none" xmlns="http://www.w3.org/2000/svg">
<path d="M8.00026 11.3334C10.4419 11.3334 12.5769 12.3834 13.7383 13.9498L12.5103 14.5307C11.5652 13.4105 9.89853 12.6667 8.00026 12.6667C6.10198 12.6667 4.43534 13.4105 3.49019 14.5307L2.2627 13.9492C3.42417 12.3832 5.55897 11.3334 8.00026 11.3334ZM8.00026 1.33337C9.8412 1.33337 11.3336 2.82576 11.3336 4.66671V6.66671C11.3336 8.45924 9.91873 9.92124 8.14486 9.99697L8.00026 10C6.15931 10 4.66693 8.50764 4.66693 6.66671V4.66671C4.66693 2.87421 6.0818 1.41216 7.85566 1.33645L8.00026 1.33337ZM8.00026 2.66671C6.93513 2.66671 6.06448 3.49932 6.00366 4.54919L6.00026 4.66671V6.66671C6.00026 7.77131 6.89566 8.66671 8.00026 8.66671C9.0654 8.66671 9.93606 7.83411 9.99686 6.78424L10.0003 6.66671V4.66671C10.0003 3.56214 9.1048 2.66671 8.00026 2.66671Z" fill="#B0B0B0"/>
</svg>
