<svg width="19" height="18" viewBox="0 0 19 18" fill="none" xmlns="http://www.w3.org/2000/svg">
<g clip-path="url(#clip0_3768_4773)">
<path d="M11.1501 12.1958C8.96644 11.2711 7.22994 9.5306 6.3104 7.34475L8.8604 4.79025L4.1654 0.0915L1.78715 2.469C1.37465 2.88386 1.04851 3.3764 0.827596 3.91812C0.606685 4.45984 0.495389 5.03999 0.500146 5.625C0.500146 11.061 7.43915 18 12.8751 18C13.4601 18.0051 14.0402 17.894 14.5819 17.673C15.1235 17.4521 15.6159 17.1258 16.0304 16.713L18.4086 14.3348L13.7099 9.636L11.1501 12.1958ZM14.9691 15.6525C14.6937 15.9255 14.3668 16.1411 14.0073 16.2866C13.6478 16.4321 13.2629 16.5046 12.8751 16.5C8.2004 16.5 2.00015 10.2998 2.00015 5.625C1.99573 5.23712 2.06837 4.85223 2.21385 4.49264C2.35933 4.13306 2.57476 3.80594 2.84765 3.53025L4.1654 2.2125L6.74315 4.79025L4.5419 6.9915L4.72565 7.452C5.26658 8.89898 6.11222 10.2128 7.20526 11.3044C8.2983 12.396 9.61321 13.24 11.0609 13.779L11.5154 13.9523L13.7099 11.757L16.2876 14.3348L14.9691 15.6525ZM11.0001 1.5V0C12.9886 0.0021837 14.895 0.793061 16.301 2.19911C17.7071 3.60516 18.498 5.51155 18.5001 7.5H17.0001C16.9984 5.90925 16.3656 4.38416 15.2408 3.25933C14.116 2.1345 12.5909 1.50179 11.0001 1.5ZM11.0001 4.5V3C12.1933 3.00119 13.3372 3.47568 14.1808 4.31934C15.0245 5.16299 15.499 6.30689 15.5001 7.5H14.0001C14.0001 6.70435 13.6841 5.94129 13.1215 5.37868C12.5589 4.81607 11.7958 4.5 11.0001 4.5Z" fill="#9CA3AF"/>
</g>
<defs>
<clipPath id="clip0_3768_4773">
<rect width="18" height="18" fill="white" transform="translate(0.5)"/>
</clipPath>
</defs>
</svg>
