<svg width="18" height="18" viewBox="0 0 18 18" fill="none" xmlns="http://www.w3.org/2000/svg">
<g clip-path="url(#clip0_3398_1765)">
<path d="M18 15H11.112C10.9999 14.6863 10.8196 14.4014 10.5841 14.1659C10.3486 13.9304 10.0637 13.7501 9.75 13.638V11.25H15.75V3.75C15.75 3.15326 15.5129 2.58097 15.091 2.15901C14.669 1.73705 14.0967 1.5 13.5 1.5H9.23325L7.05 0H4.5C3.90326 0 3.33097 0.237053 2.90901 0.65901C2.48705 1.08097 2.25 1.65326 2.25 2.25V11.25H8.25V13.638C7.93632 13.7501 7.65142 13.9304 7.41589 14.1659C7.18035 14.4014 7.00005 14.6863 6.888 15H0V16.5H6.888C7.04074 16.9384 7.32612 17.3184 7.70456 17.5873C8.083 17.8562 8.53575 18.0007 9 18.0007C9.46425 18.0007 9.917 17.8562 10.2954 17.5873C10.6739 17.3184 10.9593 16.9384 11.112 16.5H18V15ZM4.5 1.5H6.585L8.76675 3H13.5C13.6989 3 13.8897 3.07902 14.0303 3.21967C14.171 3.36032 14.25 3.55109 14.25 3.75V4.5H3.75V2.25C3.75 2.05109 3.82902 1.86032 3.96967 1.71967C4.11032 1.57902 4.30109 1.5 4.5 1.5ZM3.75 6H14.25V9.75H3.75V6ZM9 16.5C8.85166 16.5 8.70666 16.456 8.58332 16.3736C8.45998 16.2912 8.36386 16.1741 8.30709 16.037C8.25032 15.9 8.23547 15.7492 8.26441 15.6037C8.29335 15.4582 8.36478 15.3246 8.46967 15.2197C8.57456 15.1148 8.7082 15.0434 8.85368 15.0144C8.99917 14.9855 9.14997 15.0003 9.28701 15.0571C9.42406 15.1139 9.54119 15.21 9.6236 15.3333C9.70601 15.4567 9.75 15.6017 9.75 15.75C9.75 15.9489 9.67098 16.1397 9.53033 16.2803C9.38968 16.421 9.19891 16.5 9 16.5Z" fill="#9CA3AF"/>
</g>
<defs>
<clipPath id="clip0_3398_1765">
<rect width="18" height="18" fill="white"/>
</clipPath>
</defs>
</svg>
