<svg width="80" height="80" viewBox="0 0 80 80" fill="none" xmlns="http://www.w3.org/2000/svg">
<rect width="80" height="80" rx="40" fill="#2B2B2B"/>
<path d="M79 40C79 42.314 78.7985 44.5806 78.4122 46.7837C75.2017 65.0891 59.2251 79 40 79C39.4094 79 38.8221 78.987 38.238 78.961C17.5165 78.0394 1 60.9486 1 40C1 18.4609 18.4609 1 40 1C61.5391 1 79 18.4609 79 40Z" fill="url(#paint0_linear_3640_3970)"/>
<path d="M56.4109 63.8027C53.5247 64.9833 48.3546 66.3713 40.0002 66.3713C31.6459 66.3713 26.4757 64.9833 23.5896 63.8027C21.6709 63.018 20.5088 61.0568 20.735 58.996C21.1135 55.5507 22.2057 52.121 24.7018 50.5677C29.3014 47.7052 33.8672 46.4856 33.8672 46.4856C34.028 45.9849 34.2088 44.3286 34.3035 42.6328C33.721 42.0277 33.1436 41.3962 32.5348 40.7979C31.3756 39.6587 31.2452 38.0305 30.8314 35.9302C30.0711 36.1464 29.8306 35.7844 29.6287 35.4766C29.4911 35.2661 29.437 35.0139 29.3855 34.7677C29.2002 33.8826 29.0153 32.9975 28.8304 32.1124C28.6913 31.4475 28.5515 30.7665 28.6458 30.0937C28.6909 29.7757 28.804 29.4424 29.0652 29.2552C29.3265 29.0684 29.7628 29.1135 29.8936 29.407C29.8936 29.407 29.4701 25.2411 29.4701 25.5918C29.1164 25.1991 28.8364 24.3436 28.9536 23.6825C29.0705 23.0217 29.2806 22.3787 29.3855 21.716C29.5001 20.9884 29.4881 20.2375 29.6971 19.5309C29.9917 18.5349 30.6961 17.7185 31.4128 16.9672C31.9206 16.435 32.4456 15.9179 33.0184 15.4567C34.1655 14.5347 35.5328 13.841 36.9956 13.6771C37.4651 13.6248 37.9386 13.6271 38.4107 13.6293C38.9402 13.632 39.4702 13.6346 40.0001 13.6372C40.53 13.6346 41.06 13.632 41.5895 13.6293C42.0616 13.6271 42.5352 13.6248 43.0046 13.6771C44.4674 13.841 45.8347 14.5347 46.9818 15.4567C47.5546 15.9179 48.0797 16.4351 48.5874 16.9672C49.3042 17.7185 50.0085 18.5349 50.3032 19.5309C50.5121 20.2375 50.5001 20.9884 50.6147 21.716C50.7196 22.3787 50.9297 23.0217 51.0466 23.6825C51.1639 24.3436 50.8838 25.199 50.5302 25.5918C50.5302 25.2411 50.1066 29.407 50.1066 29.407C50.2374 29.1135 50.6738 29.0684 50.935 29.2552C51.1962 29.4424 51.3093 29.7758 51.3544 30.0937C51.4487 30.7665 51.3089 31.4475 51.1698 32.1124C50.9849 32.9975 50.8 33.8826 50.6147 34.7677C50.5632 35.0139 50.5091 35.2661 50.3715 35.4766C50.1697 35.7844 49.9291 36.1464 49.1688 35.9302C48.755 38.0305 48.6245 39.6586 47.4654 40.7979C46.8566 41.3962 46.2793 42.0276 45.6967 42.6328C45.7914 44.3286 45.9722 45.9849 46.133 46.4856C46.133 46.4856 50.6988 47.7052 55.2985 50.5677C57.7945 52.121 58.8867 55.5507 59.2652 58.996C59.4917 61.0568 58.3296 63.018 56.4109 63.8027Z" fill="white"/>
<defs>
<linearGradient id="paint0_linear_3640_3970" x1="10" y1="15.5" x2="73" y2="62" gradientUnits="userSpaceOnUse">
<stop stop-color="#E5E5E5"/>
<stop offset="0.473148" stop-color="white" stop-opacity="0.45"/>
<stop offset="1" stop-color="#D8D8D8"/>
</linearGradient>
</defs>
</svg>
