<svg width="18" height="18" viewBox="0 0 18 18" fill="none" xmlns="http://www.w3.org/2000/svg">
<g clip-path="url(#clip0_3398_1715)">
<path d="M9.00013 0.00537109C7.51622 0.00553859 6.0657 0.445898 4.83215 1.27072C3.59859 2.09555 2.63743 3.26776 2.07031 4.63903C1.5032 6.0103 1.3556 7.51898 1.64621 8.97416C1.93682 10.4293 2.65257 11.7656 3.70288 12.8139L7.47163 16.5001H3.75013V18.0001H14.2501V16.5001H10.5286L14.3034 12.8079C15.352 11.7589 16.0661 10.4226 16.3553 8.96791C16.6445 7.5132 16.4959 6.00539 15.9283 4.63511C15.3607 3.26483 14.3995 2.09362 13.1664 1.26955C11.9332 0.445471 10.4833 0.00553949 9.00013 0.00537109ZM13.2489 11.7414L9.00013 15.9001L4.75738 11.7474C3.91856 10.9085 3.34723 9.83978 3.11561 8.6763C2.88399 7.51282 3.00247 6.30679 3.45608 5.21062C3.90969 4.11446 4.67807 3.17736 5.66411 2.51777C6.65015 1.85817 7.80959 1.50568 8.9959 1.50484C10.1822 1.50401 11.3421 1.85486 12.3291 2.51306C13.3161 3.17126 14.0858 4.10727 14.5409 5.20279C14.9961 6.29831 15.1163 7.50417 14.8863 8.66798C14.6563 9.83179 14.0865 10.9013 13.2489 11.7414ZM5.25013 4.78662V9.46361L9.00013 11.3386L12.7501 9.46361V4.78662L9.00013 2.91162L5.25013 4.78662ZM11.2501 8.53661L9.00013 9.66161L6.75013 8.53661V5.71361L6.83863 5.66936L9.00013 6.75011L11.1616 5.66936L11.2501 5.71361V8.53661Z" fill="#9CA3AF"/>
</g>
<defs>
<clipPath id="clip0_3398_1715">
<rect width="18" height="18" fill="white"/>
</clipPath>
</defs>
</svg>
