<svg width="24" height="24" viewBox="0 0 24 24" fill="none" xmlns="http://www.w3.org/2000/svg">
<g clip-path="url(#clip0_3420_1110)">
<path d="M13.338 0.833299C12.9707 0.502736 12.4941 0.319824 12 0.319824C11.5059 0.319824 11.0293 0.502736 10.662 0.833299L0 10.4293V20.8293C0 21.678 0.337142 22.4919 0.937258 23.092C1.53737 23.6922 2.35131 24.0293 3.2 24.0293H20.8C21.6487 24.0293 22.4626 23.6922 23.0627 23.092C23.6629 22.4919 24 21.678 24 20.8293V10.4293L13.338 0.833299ZM15 22.0263H9V17.0003C9 16.2047 9.31607 15.4416 9.87868 14.879C10.4413 14.3164 11.2044 14.0003 12 14.0003C12.7956 14.0003 13.5587 14.3164 14.1213 14.879C14.6839 15.4416 15 16.2047 15 17.0003V22.0263ZM22 20.8263C22 21.1446 21.8736 21.4498 21.6485 21.6748C21.4235 21.8999 21.1183 22.0263 20.8 22.0263H17V17.0003C17 15.6742 16.4732 14.4024 15.5355 13.4648C14.5979 12.5271 13.3261 12.0003 12 12.0003C10.6739 12.0003 9.40215 12.5271 8.46447 13.4648C7.52678 14.4024 7 15.6742 7 17.0003V22.0263H3.2C2.88174 22.0263 2.57652 21.8999 2.35147 21.6748C2.12643 21.4498 2 21.1446 2 20.8263V11.3193L12 2.3193L22 11.3193V20.8263Z" fill="white"/>
</g>
<defs>
<clipPath id="clip0_3420_1110">
<rect width="24" height="24" fill="white"/>
</clipPath>
</defs>
</svg>
