<svg width="18" height="19" viewBox="0 0 18 19" fill="none" xmlns="http://www.w3.org/2000/svg">
<g clip-path="url(#clip0_3398_2418)">
<path d="M0.777856 4.91664L-0.00439453 3.64164L5.04686 0.546387L5.82836 1.82589L0.777856 4.91664ZM16.7056 12.6626L13.6119 17.6749L14.8869 18.4631L17.9806 13.4501L16.7056 12.6626ZM15.6931 11.4499L12.0001 17.4371C11.8318 17.7222 11.6002 17.9648 11.3232 18.146C11.0462 18.3273 10.7312 18.4425 10.4026 18.4826C10.308 18.4941 10.2129 18.4999 10.1176 18.4999C9.83148 18.5001 9.54816 18.4436 9.284 18.3337C9.01984 18.2237 8.78009 18.0625 8.57861 17.8594L7.85636 17.1371C7.17016 17.6174 6.33669 17.8406 5.50232 17.7674C4.66794 17.6942 3.88603 17.3294 3.29391 16.737C2.70179 16.1446 2.33733 15.3625 2.26453 14.5281C2.19174 13.6937 2.41526 12.8604 2.89586 12.1744L0.639856 9.91764C0.411004 9.68878 0.235896 9.41191 0.127206 9.10706C0.0185158 8.80221 -0.0210379 8.477 0.0114079 8.15499C0.0438536 7.83297 0.147487 7.52219 0.314808 7.24515C0.482128 6.96811 0.70895 6.73174 0.978856 6.55314L6.80036 2.99064C7.90093 2.28524 9.19442 1.94138 10.5 2.00714C11.8056 2.07289 13.058 2.54498 14.0821 3.35739L15.5011 1.93839L16.5616 2.99889L15.1366 4.42389C15.9145 5.40834 16.3827 6.60157 16.4818 7.85238C16.5809 9.10318 16.3064 10.3552 15.6931 11.4499ZM6.75761 16.0384L3.98861 13.2671C3.78265 13.6547 3.70723 14.0984 3.77358 14.5323C3.83992 14.9662 4.04448 15.3671 4.35686 15.6754C4.67158 15.9746 5.07067 16.17 5.50008 16.2349C5.92948 16.2998 6.36847 16.2312 6.75761 16.0384ZM13.5976 4.92489C12.8238 4.14512 11.806 3.65436 10.7141 3.53451C9.6221 3.41467 8.52207 3.673 7.59761 4.26639L1.78361 7.81839C1.70406 7.87397 1.63775 7.9464 1.5894 8.03053C1.54104 8.11467 1.51184 8.20843 1.50386 8.30514C1.49303 8.406 1.50507 8.508 1.53909 8.60357C1.57311 8.69914 1.62823 8.78581 1.70036 8.85714L9.63986 16.7989C9.71271 16.8739 9.80223 16.9306 9.90114 16.9645C10.0001 16.9984 10.1056 17.0085 10.2091 16.9939C10.3127 16.9814 10.412 16.945 10.4992 16.8876C10.5864 16.8302 10.6591 16.7534 10.7116 16.6631L14.4016 10.6834C14.9105 9.76626 15.1073 8.7085 14.9622 7.66974C14.8172 6.63097 14.3382 5.66756 13.5976 4.92489Z" fill="white"/>
</g>
<defs>
<clipPath id="clip0_3398_2418">
<rect width="18" height="18" fill="white" transform="translate(0 0.5)"/>
</clipPath>
</defs>
</svg>
