<svg width="18" height="18" viewBox="0 0 18 18" fill="none" xmlns="http://www.w3.org/2000/svg">
<g clip-path="url(#clip0_3398_178)">
<path d="M16.5 9C16.5058 10.7449 15.9051 12.4377 14.8007 13.7886C13.6962 15.1395 12.1567 16.0646 10.4454 16.4057C8.73411 16.7467 6.95749 16.4825 5.41953 15.6582C3.88156 14.8339 2.67784 13.5008 2.01431 11.8869C1.35079 10.2731 1.26871 8.47881 1.78211 6.81112C2.29551 5.14342 3.37249 3.70597 4.82877 2.7447C6.28506 1.78343 8.03012 1.3581 9.76539 1.54149C11.5007 1.72487 13.1183 2.50557 14.3415 3.75H11.25V5.25H15.1072C15.4765 5.2496 15.8305 5.10274 16.0916 4.84163C16.3527 4.58053 16.4996 4.22651 16.5 3.85725V0H15V2.3085C13.4649 0.937089 11.5057 0.134064 9.44979 0.033633C7.39383 -0.0667981 5.36569 0.541449 3.70431 1.75672C2.04294 2.97199 0.848998 4.72066 0.322025 6.71047C-0.204949 8.70028 -0.0330246 10.8107 0.809064 12.6889C1.65115 14.5672 3.11239 16.0996 4.94855 17.0299C6.78472 17.9603 8.88456 18.2322 10.8972 17.8004C12.9097 17.3685 14.7131 16.2589 16.0059 14.6572C17.2988 13.0554 18.0026 11.0584 18 9H16.5Z" fill="#9CA3AF"/>
</g>
<defs>
<clipPath id="clip0_3398_178">
<rect width="18" height="18" fill="white"/>
</clipPath>
</defs>
</svg>
