<svg width="20" height="20" viewBox="0 0 20 20" fill="none" xmlns="http://www.w3.org/2000/svg">
<g clip-path="url(#clip0_4484_9894)">
<path d="M19.9993 18.8225L14.781 13.6041C16.1365 11.9463 16.803 9.83087 16.6425 7.69543C16.4821 5.55999 15.507 3.5679 13.919 2.13123C12.331 0.694554 10.2515 -0.0767949 8.1107 -0.0232684C5.96991 0.0302581 3.93158 0.904564 2.41734 2.41881C0.903099 3.93305 0.0287933 5.97137 -0.0247333 8.11216C-0.0782598 10.253 0.693089 12.3324 2.12976 13.9204C3.56644 15.5085 5.55852 16.4836 7.69396 16.644C9.82941 16.8044 11.9448 16.138 13.6027 14.7825L18.821 20.0008L19.9993 18.8225ZM8.33266 15.0008C7.01412 15.0008 5.72519 14.6098 4.62886 13.8773C3.53253 13.1447 2.67805 12.1035 2.17347 10.8854C1.66888 9.66718 1.53686 8.32673 1.79409 7.03353C2.05133 5.74032 2.68627 4.55243 3.61862 3.62008C4.55097 2.68773 5.73885 2.05279 7.03206 1.79556C8.32527 1.53832 9.66571 1.67035 10.8839 2.17493C12.1021 2.67952 13.1433 3.534 13.8758 4.63033C14.6083 5.72665 14.9993 7.01559 14.9993 8.33413C14.9973 10.1016 14.2943 11.7962 13.0445 13.046C11.7947 14.2958 10.1002 14.9988 8.33266 15.0008Z" fill="#9CA3AF"/>
</g>
<defs>
<clipPath id="clip0_4484_9894">
<rect width="20" height="20" fill="white"/>
</clipPath>
</defs>
</svg>
