<svg width="18" height="18" viewBox="0 0 18 18" fill="none" xmlns="http://www.w3.org/2000/svg">
<g clip-path="url(#clip0_4474_4390)">
<path d="M18 2.25L3.1815 2.25L3.15 1.98675C3.08554 1.43956 2.82254 0.935049 2.41087 0.568858C1.9992 0.202667 1.46747 0.000256345 0.9165 0L0 0L0 1.5L0.9165 1.5C1.1002 1.50002 1.2775 1.56747 1.41478 1.68954C1.55206 1.81161 1.63976 1.97981 1.66125 2.16225L2.85 12.2633C2.91446 12.8104 3.17746 13.315 3.58913 13.6811C4.0008 14.0473 4.53253 14.2497 5.0835 14.25L15 14.25V12.75L5.0835 12.75C4.89968 12.75 4.72229 12.6824 4.58499 12.5602C4.4477 12.438 4.36007 12.2696 4.33875 12.087L4.2405 11.25L16.377 11.25L18 2.25ZM15.123 9.75L4.06425 9.75L3.3585 3.75L16.2052 3.75L15.123 9.75Z" fill="white"/>
<path d="M5.25 18.0005C6.07842 18.0005 6.74999 17.3289 6.74999 16.5005C6.74999 15.6721 6.07842 15.0005 5.25 15.0005C4.42157 15.0005 3.75 15.6721 3.75 16.5005C3.75 17.3289 4.42157 18.0005 5.25 18.0005Z" fill="white"/>
<path d="M12.75 18.0005C13.5784 18.0005 14.25 17.3289 14.25 16.5005C14.25 15.6721 13.5784 15.0005 12.75 15.0005C11.9216 15.0005 11.25 15.6721 11.25 16.5005C11.25 17.3289 11.9216 18.0005 12.75 18.0005Z" fill="white"/>
</g>
<defs>
<clipPath id="clip0_4474_4390">
<rect width="18" height="18" fill="white"/>
</clipPath>
</defs>
</svg>
