<svg width="16" height="16" viewBox="0 0 16 16" fill="none" xmlns="http://www.w3.org/2000/svg">
<g clip-path="url(#clip0_258_508)">
<path d="M11.333 4.00004H14.6663V5.33337H13.333V14C13.333 14.3682 13.0345 14.6667 12.6663 14.6667H3.33301C2.96482 14.6667 2.66634 14.3682 2.66634 14V5.33337H1.33301V4.00004H4.66634V2.00004C4.66634 1.63185 4.96482 1.33337 5.33301 1.33337H10.6663C11.0345 1.33337 11.333 1.63185 11.333 2.00004V4.00004ZM11.9997 5.33337H3.99967V13.3334H11.9997V5.33337ZM5.99967 7.33337H7.33301V11.3334H5.99967V7.33337ZM8.66634 7.33337H9.99967V11.3334H8.66634V7.33337ZM5.99967 2.66671V4.00004H9.99967V2.66671H5.99967Z" fill="#FF5C5C"/>
</g>
<defs>
<clipPath id="clip0_258_508">
<rect width="16" height="16" fill="white"/>
</clipPath>
</defs>
</svg>
