<svg width="18" height="18" viewBox="0 0 18 18" fill="none" xmlns="http://www.w3.org/2000/svg">
<g clip-path="url(#clip0_3398_2270)">
<path d="M2.25 18.0005H3.75V14.2182C3.7506 13.6302 3.98444 13.0665 4.40022 12.6507C4.816 12.2349 5.37975 12.0011 5.96775 12.0005H12.0323C12.6203 12.0011 13.184 12.2349 13.5998 12.6507C14.0156 13.0665 14.2494 13.6302 14.25 14.2182V18.0005H15.75V14.2182C15.7488 13.2326 15.3567 12.2877 14.6598 11.5907C13.9628 10.8938 13.0179 10.5017 12.0323 10.5005H5.96775C4.98211 10.5017 4.03717 10.8938 3.34022 11.5907C2.64326 12.2877 2.25119 13.2326 2.25 14.2182V18.0005Z" fill="white"/>
<path d="M9 9C9.89001 9 10.76 8.73608 11.5001 8.24162C12.2401 7.74715 12.8169 7.04434 13.1575 6.22208C13.4981 5.39981 13.5872 4.49501 13.4135 3.6221C13.2399 2.74918 12.8113 1.94736 12.182 1.31802C11.5526 0.688685 10.7508 0.260102 9.8779 0.0864683C9.00499 -0.0871652 8.10019 0.00194979 7.27792 0.342544C6.45565 0.683138 5.75285 1.25991 5.25838 1.99994C4.76392 2.73996 4.5 3.60999 4.5 4.5C4.50119 5.69311 4.97568 6.83701 5.81933 7.68067C6.66299 8.52432 7.80689 8.99881 9 9ZM9 1.5C9.59334 1.5 10.1734 1.67595 10.6667 2.00559C11.1601 2.33524 11.5446 2.80377 11.7716 3.35195C11.9987 3.90013 12.0581 4.50333 11.9424 5.08527C11.8266 5.66722 11.5409 6.20177 11.1213 6.62132C10.7018 7.04088 10.1672 7.3266 9.58527 7.44236C9.00333 7.55811 8.40013 7.4987 7.85195 7.27164C7.30377 7.04458 6.83523 6.66006 6.50559 6.16671C6.17594 5.67337 6 5.09335 6 4.5C6 3.70435 6.31607 2.94129 6.87868 2.37868C7.44129 1.81607 8.20435 1.5 9 1.5Z" fill="white"/>
</g>
<defs>
<clipPath id="clip0_3398_2270">
<rect width="18" height="18" fill="white" transform="matrix(-1 0 0 1 18 0)"/>
</clipPath>
</defs>
</svg>
